<svg width="76" height="20" viewBox="0 0 76 20" fill="none" xmlns="http://www.w3.org/2000/svg">
<path d="M0.504 9.978C0.504 8.934 0.714 8.022 1.134 7.242C1.566 6.462 2.16 5.862 2.916 5.442C3.684 5.022 4.56 4.812 5.544 4.812C6.804 4.812 7.854 5.142 8.694 5.802C9.546 6.462 10.104 7.392 10.368 8.592H7.092C6.816 7.824 6.282 7.44 5.49 7.44C4.926 7.44 4.476 7.662 4.14 8.106C3.804 8.538 3.636 9.162 3.636 9.978C3.636 10.794 3.804 11.424 4.14 11.868C4.476 12.3 4.926 12.516 5.49 12.516C6.282 12.516 6.816 12.132 7.092 11.364H10.368C10.104 12.54 9.546 13.464 8.694 14.136C7.842 14.808 6.792 15.144 5.544 15.144C4.56 15.144 3.684 14.934 2.916 14.514C2.16 14.094 1.566 13.494 1.134 12.714C0.714 11.934 0.504 11.022 0.504 9.978ZM11.4024 9.96C11.4024 8.928 11.5944 8.022 11.9784 7.242C12.3744 6.462 12.9084 5.862 13.5804 5.442C14.2524 5.022 15.0024 4.812 15.8304 4.812C16.5384 4.812 17.1564 4.956 17.6844 5.244C18.2244 5.532 18.6384 5.91 18.9264 6.378V4.956H22.0044V15H18.9264V13.578C18.6264 14.046 18.2064 14.424 17.6664 14.712C17.1384 15 16.5204 15.144 15.8124 15.144C14.9964 15.144 14.2524 14.934 13.5804 14.514C12.9084 14.082 12.3744 13.476 11.9784 12.696C11.5944 11.904 11.4024 10.992 11.4024 9.96ZM18.9264 9.978C18.9264 9.21 18.7104 8.604 18.2784 8.16C17.8584 7.716 17.3424 7.494 16.7304 7.494C16.1184 7.494 15.5964 7.716 15.1644 8.16C14.7444 8.592 14.5344 9.192 14.5344 9.96C14.5344 10.728 14.7444 11.34 15.1644 11.796C15.5964 12.24 16.1184 12.462 16.7304 12.462C17.3424 12.462 17.8584 12.24 18.2784 11.796C18.7104 11.352 18.9264 10.746 18.9264 9.978ZM37.0472 4.848C38.2952 4.848 39.2852 5.226 40.0172 5.982C40.7612 6.738 41.1332 7.788 41.1332 9.132V15H38.0732V9.546C38.0732 8.898 37.8992 8.4 37.5512 8.052C37.2152 7.692 36.7472 7.512 36.1472 7.512C35.5472 7.512 35.0732 7.692 34.7252 8.052C34.3892 8.4 34.2212 8.898 34.2212 9.546V15H31.1612V9.546C31.1612 8.898 30.9872 8.4 30.6392 8.052C30.3032 7.692 29.8352 7.512 29.2352 7.512C28.6352 7.512 28.1612 7.692 27.8132 8.052C27.4772 8.4 27.3092 8.898 27.3092 9.546V15H24.2312V4.956H27.3092V6.216C27.6212 5.796 28.0292 5.466 28.5332 5.226C29.0372 4.974 29.6072 4.848 30.2432 4.848C30.9992 4.848 31.6712 5.01 32.2592 5.334C32.8592 5.658 33.3272 6.12 33.6632 6.72C34.0112 6.168 34.4852 5.718 35.0852 5.37C35.6852 5.022 36.3392 4.848 37.0472 4.848ZM46.3639 6.378C46.6639 5.91 47.0779 5.532 47.6059 5.244C48.1339 4.956 48.7519 4.812 49.4599 4.812C50.2879 4.812 51.0379 5.022 51.7099 5.442C52.3819 5.862 52.9099 6.462 53.2939 7.242C53.6899 8.022 53.8879 8.928 53.8879 9.96C53.8879 10.992 53.6899 11.904 53.2939 12.696C52.9099 13.476 52.3819 14.082 51.7099 14.514C51.0379 14.934 50.2879 15.144 49.4599 15.144C48.7639 15.144 48.1459 15 47.6059 14.712C47.0779 14.424 46.6639 14.052 46.3639 13.596V19.788H43.2859V4.956H46.3639V6.378ZM50.7559 9.96C50.7559 9.192 50.5399 8.592 50.1079 8.16C49.6879 7.716 49.1659 7.494 48.5419 7.494C47.9299 7.494 47.4079 7.716 46.9759 8.16C46.5559 8.604 46.3459 9.21 46.3459 9.978C46.3459 10.746 46.5559 11.352 46.9759 11.796C47.4079 12.24 47.9299 12.462 48.5419 12.462C49.1539 12.462 49.6759 12.24 50.1079 11.796C50.5399 11.34 50.7559 10.728 50.7559 9.96ZM56.9427 15.144C56.4027 15.144 55.9587 14.988 55.6107 14.676C55.2747 14.352 55.1067 13.956 55.1067 13.488C55.1067 13.008 55.2747 12.606 55.6107 12.282C55.9587 11.958 56.4027 11.796 56.9427 11.796C57.4707 11.796 57.9027 11.958 58.2387 12.282C58.5867 12.606 58.7607 13.008 58.7607 13.488C58.7607 13.956 58.5867 14.352 58.2387 14.676C57.9027 14.988 57.4707 15.144 56.9427 15.144ZM62.1308 3.912C61.5908 3.912 61.1468 3.756 60.7988 3.444C60.4628 3.12 60.2948 2.724 60.2948 2.256C60.2948 1.776 60.4628 1.38 60.7988 1.068C61.1468 0.743999 61.5908 0.581999 62.1308 0.581999C62.6588 0.581999 63.0908 0.743999 63.4268 1.068C63.7748 1.38 63.9488 1.776 63.9488 2.256C63.9488 2.724 63.7748 3.12 63.4268 3.444C63.0908 3.756 62.6588 3.912 62.1308 3.912ZM63.6608 4.956V15H60.5828V4.956H63.6608ZM72.0114 4.848C73.1874 4.848 74.1234 5.232 74.8194 6C75.5274 6.756 75.8814 7.8 75.8814 9.132V15H72.8214V9.546C72.8214 8.874 72.6474 8.352 72.2994 7.98C71.9514 7.608 71.4834 7.422 70.8954 7.422C70.3074 7.422 69.8394 7.608 69.4914 7.98C69.1434 8.352 68.9694 8.874 68.9694 9.546V15H65.8914V4.956H68.9694V6.288C69.2814 5.844 69.7014 5.496 70.2294 5.244C70.7574 4.98 71.3514 4.848 72.0114 4.848Z" fill="#D5CCB6"/>
</svg>
